<svg xmlns="http://www.w3.org/2000/svg" width="1280" height="720" viewBox="0 0 1280 720" shape-rendering="crispEdges">
  <rect width="1280" height="720" fill="transparent"/>

  <rect x="0" y="0" width="1280" height="62" fill="#0a0f1f" fill-opacity="0.9"/>
  <rect x="0" y="660" width="1280" height="60" fill="#0a0f1f" fill-opacity="0.92"/>

  <rect x="8" y="76" width="232" height="572" fill="#121c32" fill-opacity="0.84"/>
  <rect x="1040" y="76" width="232" height="572" fill="#121c32" fill-opacity="0.84"/>

  <rect x="186" y="82" width="908" height="556" fill="#000000" fill-opacity="0.14"/>
  <rect x="186" y="82" width="908" height="10" fill="#3c496f" fill-opacity="0.95"/>
  <rect x="186" y="628" width="908" height="10" fill="#3c496f" fill-opacity="0.95"/>
  <rect x="186" y="82" width="10" height="556" fill="#3c496f" fill-opacity="0.95"/>
  <rect x="1084" y="82" width="10" height="556" fill="#3c496f" fill-opacity="0.95"/>

  <rect x="206" y="102" width="868" height="516" fill="none" stroke="#95a6d8" stroke-opacity="0.55" stroke-width="2"/>

  <rect x="32" y="98" width="184" height="8" fill="#f0b35a"/>
  <rect x="1064" y="98" width="184" height="8" fill="#f0b35a"/>
  <rect x="32" y="618" width="184" height="8" fill="#f0b35a"/>
  <rect x="1064" y="618" width="184" height="8" fill="#f0b35a"/>
</svg>
