<svg xmlns="http://www.w3.org/2000/svg" width="1280" height="720" viewBox="0 0 1280 720" shape-rendering="crispEdges">
  <rect width="1280" height="720" fill="#141624"/>
  <rect y="420" width="1280" height="300" fill="#1d2338"/>
  <rect y="610" width="1280" height="110" fill="#2b334f"/>

  <rect x="0" y="540" width="1280" height="8" fill="#4a5578"/>
  <rect x="0" y="576" width="1280" height="8" fill="#4a5578"/>
  <rect x="0" y="646" width="1280" height="6" fill="#3b4565"/>

  <rect x="80" y="80" width="14" height="14" fill="#3a4162"/>
  <rect x="220" y="130" width="10" height="10" fill="#3a4162"/>
  <rect x="360" y="88" width="12" height="12" fill="#3a4162"/>
  <rect x="520" y="150" width="10" height="10" fill="#3a4162"/>
  <rect x="720" y="105" width="12" height="12" fill="#3a4162"/>
  <rect x="900" y="170" width="10" height="10" fill="#3a4162"/>
  <rect x="1060" y="90" width="12" height="12" fill="#3a4162"/>
  <rect x="1180" y="150" width="10" height="10" fill="#3a4162"/>

  <rect x="442" y="180" width="396" height="350" fill="#232a40"/>
  <rect x="474" y="214" width="332" height="284" fill="#0f1220"/>
  <rect x="530" y="268" width="220" height="178" fill="#181d2f"/>
  <rect x="578" y="304" width="124" height="142" fill="#0a0c16"/>

  <rect x="462" y="200" width="20" height="16" fill="#3b4566"/>
  <rect x="514" y="200" width="20" height="16" fill="#3b4566"/>
  <rect x="566" y="200" width="20" height="16" fill="#3b4566"/>
  <rect x="618" y="200" width="20" height="16" fill="#3b4566"/>
  <rect x="670" y="200" width="20" height="16" fill="#3b4566"/>
  <rect x="722" y="200" width="20" height="16" fill="#3b4566"/>
  <rect x="774" y="200" width="20" height="16" fill="#3b4566"/>

  <rect x="406" y="262" width="36" height="178" fill="#2b334d"/>
  <rect x="838" y="262" width="36" height="178" fill="#2b334d"/>
  <rect x="402" y="440" width="44" height="24" fill="#465173"/>
  <rect x="834" y="440" width="44" height="24" fill="#465173"/>

  <rect x="424" y="284" width="8" height="72" fill="#f2af41"/>
  <rect x="432" y="304" width="8" height="52" fill="#e2692f"/>
  <rect x="844" y="284" width="8" height="72" fill="#f2af41"/>
  <rect x="852" y="304" width="8" height="52" fill="#e2692f"/>

  <rect x="0" y="676" width="1280" height="44" fill="#0a0c14"/>
</svg>
